<svg xmlns="http://www.w3.org/2000/svg" viewBox="0 0 32 40" x="0px" y="0px"><title>Artboard 83</title><g data-name="Layer 10"><path d="M27,8H22V6a2.00229,2.00229,0,0,0-2-2H12a2.002,2.002,0,0,0-2,2V8H5a2.002,2.002,0,0,0-2,2v7a1.998,1.998,0,0,0,1.50684,1.93115C4.5061,18.95459,4.5,18.97644,4.5,19v7a2.002,2.002,0,0,0,2,2h19a2.00229,2.00229,0,0,0,2-2V19c0-.02356-.0061-.04553-.00684-.06885A1.9984,1.9984,0,0,0,29,17V10A2.00229,2.00229,0,0,0,27,8ZM12,6h8V8H12ZM5,10H27v7H5l-.00146-7ZM25.5,26H6.5l-.00146-7H25.5Z"/></g><text x="0" y="47" fill="#000000" font-size="5px" font-weight="bold" font-family="'Helvetica Neue', Helvetica, Arial-Unicode, Arial, Sans-serif">Created by Anggara Putra</text><text x="0" y="52" fill="#000000" font-size="5px" font-weight="bold" font-family="'Helvetica Neue', Helvetica, Arial-Unicode, Arial, Sans-serif">from the Noun Project</text></svg>